<svg id="svg1890" xmlns:rdf="http://www.w3.org/1999/02/22-rdf-syntax-ns#" xmlns="http://www.w3.org/2000/svg" height="300" width="260" version="1.0" xmlns:cc="http://creativecommons.org/ns#" xmlns:dc="http://purl.org/dc/elements/1.1/">
 <g id="g3632" fill-rule="evenodd">
  <path id="path6362" fill="#ff750f" d="m46.257 242.25s11.029-46.87 23.061-56.65c12.032-9.77 107.53-5.51 111.29-3.76 3.76 1.76 10.28 5.27 10.28 5.27s24.31 40.6 21.06 57.15c-3.26 16.54-17.8 22.81-17.8 22.81s-37.6 9.52-64.17 8.52-93.749-4.26-83.723-33.34z"/>
  <path id="path6368" fill="#256953" d="m65.558 267.57l-0.25 20.8 119.31 2.51 9.53-2.26-0.25-22.05-128.34 1z"/>
  <path id="path6364" fill="#02a802" d="m128.98 214.43s-0.76-7.52-4.77-8.02-53.889-19.81-53.889-19.81 3.509 30.34 58.659 27.83z"/>
  <path id="path6366" fill="#02a802" d="m129.73 214.48s0.75-7.52 4.76-8.02 53.89-19.8 53.89-19.8-3.51 30.33-58.65 27.82z"/>
  <path id="path6378" fill="#3c0" d="m38.332 84.311v-60.972s-1.773-12.407 10.989-12.407h160.59s13.11-0.355 12.76 14.888c-0.36 15.243 0 63.454 0 63.454l-184.34-4.963z"/>
 </g>
 <ellipse id="path3716" rx="80.085" ry="68.644" cy="134.75" cx="130.93" fill="#fca"/>
 <path id="path8152" d="m180.79 256.76v60.98" fill="none"/>
 <g id="g3639" stroke="#000" stroke-width=".9" fill="none">
  <path id="path3681" d="m88.962 222.71h27.648v40.06h-28.357l0.709-40.06z"/>
  <path id="path3683" d="m88.963 222.71l13.467 14.53 13.83-14.53h-27.297z"/>
  <path id="path5461" d="m140.9 222.72h27.65v40.06h-28.36l0.71-40.06z"/>
  <path id="path5463" d="m141.25 222.83l13.12 14.43 13.63-14.45-26.75 0.02z"/>
 </g>
 <g id="g3645" fill-rule="evenodd">
  <path id="feet" d="m201.17 291.38l-148.9 0.5c0.003 0 24.819-15.04 75.95-3 0 0 33.59-11.03 72.95 2.5z"/>
  <path id="left_hat" fill="#3c0" d="m37.228 83.838s-45.488 47.502-24.565 81.212c17.146 27.63 50.27-47.85 43.889-67.349-6.38-19.497-20.206-13.116-19.324-13.863z"/>
  <path id="right_hat" fill="#3c0" d="m223.16 85.933s44.2 47.507 23.87 81.217c-16.67 27.62-48.85-47.86-42.65-67.354 6.2-19.497 19.63-13.116 18.78-13.863z"/>
 </g>
 <path id="path14403" stroke="#000" stroke-width="2" fill="none" d="m221.68 85.393s-94.4-41.719-184.2-1.768"/>
 <path id="path1899" fill-rule="evenodd" fill="#02a802" d="m47.761 45.732l-1.002 52.639s-1.504 2.009 4.512 1.504c6.015-0.501 46.203-7.899 83.469-8.021 27.14-0.089 72.44 4.011 73.95 7.52 1.5 3.506 5.51-11.029 4.51-17.546-1-6.518-1-35.595-1-35.595s-162.94-0.501-164.44-0.501z"/>
 <g id="g3652" fill="none" stroke="#000" transform="matrix(1.0003 0 0 .91440 -.036518 15.466)">
  <path id="path6380" stroke-width="1.4" d="m115.97 181.44s9.57 8.86 26.23-0.35"/>
  <path id="path11694" stroke-width="1px" d="m69.82 241.75s3.509-16.04 7.52-19.05"/>
  <path id="path11696" stroke-width="1px" d="m189.39 241.75s-3.51-16.04-7.52-19.05"/>
  <path id="path12583" stroke-width="1.9163" d="m129.79 214.78v60.58"/>
 </g>
 <g id="g3658" fill="#f00">
  <rect id="pivot_left_thumb" y="247.32" width="2.1213" x="63.64" height="3.5355"/>
  <rect id="pivot_right_thumb" y="247.67" width="1.7678" x="194.1" height="3.5355"/>
  <rect id="pivot_right_hat" y="91.05" width="3.5355" x="215.67" height="3.182"/>
  <rect id="pivot_left_hat" y="88.222" width="4.2426" x="40.305" height="3.8891"/>
 </g>
 <g>
  <ellipse id="path4526" rx="23.247" ry="22.085" cy="127.75" cx="101.17" fill="#fff"/>
  <circle id="path4570" cx="156.85" cy="127.87" r="22.861" fill="#fff"/>
  <ellipse id="left_eyeball" rx="3.2414" ry="3.2414" stroke="#000" cy="129.67" cx="100.22" stroke-width="1.0803"/>
  <ellipse id="right_eyeball" rx="2.7682" ry="3.2176" stroke="#000" cy="130.56" cx="155.5" stroke-width="1.1278"/>
 </g>
 <g fill="#3c0">
  <ellipse id="path4597" rx="14.831" ry="14.831" cy="252.81" cx="67.415"/>
  <ellipse id="path4619" rx="14.382" ry="13.708" cy="253.48" cx="193.26"/>
  <ellipse id="left_thumb" rx="8.5037" ry="8.0543" stroke="#000" cy="253.48" cx="78.426" stroke-width=".89261"/>
  <ellipse id="right_thumb" rx="8.4766" ry="7.5777" stroke="#000" cy="253.71" cx="181.57" stroke-width="1.3963"/>
 </g>
</svg>
