<svg id="svg12747" xmlns:rdf="http://www.w3.org/1999/02/22-rdf-syntax-ns#" xmlns="http://www.w3.org/2000/svg" height="225" width="50" version="1.0" xmlns:cc="http://creativecommons.org/ns#" xmlns:dc="http://purl.org/dc/elements/1.1/">
 <g id="layer1">
  <g id="g19422" fill-rule="evenodd" stroke="#000">
   <g id="g19146" transform="matrix(.76036 0 0 .76494 5.991 110.15)" stroke-width="0.284">
    <path id="path12871" d="m32.5 142.5a7.5 7.5 0 1 1 -15 0 7.5 7.5 0 1 1 15 0z" fill="#f7d917"/>
    <path id="path12873" d="m28.5 142.5a3.5 3.5 0 1 1 -7 0 3.5 3.5 0 1 1 7 0z" fill="#231002"/>
   </g>
   <g id="g19142" transform="matrix(.61628 0 0 1.5763 9.5929 .14159)" stroke-width="0.3">
    <path id="path14773" d="m15 114h10v-114l-5 5-5 109z" fill="#fff"/>
    <path id="path19140" d="m35 114h-10v-114l5 5 5 109z" fill="#9d9d9d"/>
   </g>
   <path id="path12875" d="m3.318 174.71c-1.7746 0.16-3.1684 1.68-3.1684 3.5-0.00005 1.84 1.4039 3.37 3.1994 3.5h0.0622 0.528 42.122 0.031c0.088 0.01 0.189 0 0.279 0 1.921 0 3.479-1.56 3.479-3.5 0-1.93-1.558-3.5-3.479-3.5-1.92 0-3.479 1.57-3.479 3.5 0 0.64 0.173 1.24 0.466 1.75h-36.716c0.2931-0.51 0.4657-1.11 0.4657-1.75 0-1.93-1.5586-3.5-3.4791-3.5-0.105 0-0.208-0.01-0.3106 0z" stroke-width=".29910" fill="#f7d917"/>
  </g>
 </g>
 <rect id="rect4926" height="29.555" width="8.5805" y="183.05" x="20.975" fill="#a05a2c"/>
</svg>
